<?xml version="1.0" encoding="UTF-8" standalone="no"?>
<svg
   xmlns:dc="http://purl.org/dc/elements/1.1/"
   xmlns:cc="http://creativecommons.org/ns#"
   xmlns:rdf="http://www.w3.org/1999/02/22-rdf-syntax-ns#"
   xmlns:svg="http://www.w3.org/2000/svg"
   xmlns="http://www.w3.org/2000/svg"
   viewBox="0 0 377.95999 76.879997"
   height="76.879997"
   width="377.95999"
   xml:space="preserve"
   id="svg2"
   version="1.1"><metadata
     id="metadata8"><rdf:RDF><cc:Work
         rdf:about=""><dc:format>image/svg+xml</dc:format><dc:type
           rdf:resource="http://purl.org/dc/dcmitype/StillImage" /></cc:Work></rdf:RDF></metadata><defs
     id="defs6" /><g
     transform="matrix(1.3333333,0,0,-1.3333333,0,76.88)"
     id="g10"><g
       transform="scale(0.1)"
       id="g12"><path
         id="path14"
         style="fill:#da193b;fill-opacity:1;fill-rule:nonzero;stroke:none"
         d="m 764.426,79.0625 v 73.1645 h 13.867 V 79.0625 c 0,-24.7656 4.352,-31.1133 21.578,-31.1133 5.676,0 12.016,1.6797 15.195,2.8516 l 14.7,5.6836 v 95.7426 h 13.547 V 54.9609 c 0,-6.3281 0.996,-17.6953 0.996,-17.6953 h -9.512 c -1.176,1.836 -2.524,4.1797 -3.676,7.6758 L 814.91,38.4375 c -4.195,-1.6797 -11.363,-3.5156 -17.222,-3.5156 -25.918,0 -33.262,12.5586 -33.262,44.1406" /><path
         id="path16"
         style="fill:#da193b;fill-opacity:1;fill-rule:nonzero;stroke:none"
         d="m 872.371,103.594 c 0,5.859 -0.984,17.226 -0.984,17.226 h 8.828 c 1.504,-2.5 2.351,-4.16 3.691,-8.027 l 14.699,7.363 c 4.032,1.992 8.368,3.008 13.028,3.008 13.394,0 22.078,-6.504 22.078,-24.9023 V 37.2656 h -12.859 v 55.9961 c 0,13.3593 -2.192,17.5393 -12.051,17.5393 -4.668,0 -7.512,-1.348 -7.512,-1.348 l -16.223,-6.66 V 37.2656 h -12.695 v 66.3284" /><path
         id="path18"
         style="fill:#da193b;fill-opacity:1;fill-rule:nonzero;stroke:none"
         d="m 959.426,120.82 h 12.715 V 37.2656 h -12.715 z m -2.324,23.575 c 0,5.175 4.168,8.847 8.691,8.847 4.668,0 8.848,-3.672 8.848,-8.847 0,-4.688 -4.18,-8.868 -8.848,-8.868 -4.523,0 -8.691,4.18 -8.691,8.868" /><path
         id="path20"
         style="fill:#da193b;fill-opacity:1;fill-rule:nonzero;stroke:none"
         d="m 989.52,120.82 h 14.19 l 21.75,-66.0153 1.17,-5.332 1.17,5.332 18.87,66.0153 h 12.89 l -26.09,-83.5544 h -15.04 L 989.52,120.82" /><path
         id="path22"
         style="fill:#da193b;fill-opacity:1;fill-rule:nonzero;stroke:none"
         d="m 1121.86,87.0703 c 0,18.7107 -7.5,25.2537 -18.05,25.2537 -11.71,0 -18.86,-7.558 -19.37,-25.2537 z m -50.64,-8.8672 c 0,39.6099 19.54,44.9609 31.92,44.9609 13.73,0 31.93,-4.687 31.93,-36.0937 V 76.3672 h -50.63 c 0.51,-24.0625 7,-29.4141 19.37,-29.4141 12.38,0 25.4,5.8399 25.4,5.8399 l 4.19,-10.1758 c 0,0 -13.05,-7.6953 -32.09,-7.6953 -12.35,0 -30.09,4.1797 -30.09,43.2812" /><path
         id="path24"
         style="fill:#da193b;fill-opacity:1;fill-rule:nonzero;stroke:none"
         d="m 1157.45,105.449 c 0,3.692 -1,15.371 -1,15.371 h 9.17 c 1.35,-2.832 2.68,-7.187 3.52,-10.703 l 11.04,9.024 c 3,2.343 5.84,4.023 11.7,4.023 3.01,0 6,-0.84 8.19,-1.836 l -3.85,-12.187 c -1.68,0.488 -3.51,0.976 -6.01,0.976 -3.51,0 -6.37,-1.992 -6.54,-1.992 l -13.52,-8.6914 v -62.168 h -12.7 v 68.1834" /><path
         id="path26"
         style="fill:#da193b;fill-opacity:1;fill-rule:nonzero;stroke:none"
         d="m 1208.91,42.9492 4.18,10.1953 c 0,0 13.02,-6.1914 25.41,-6.1914 7.67,0 16.55,1.3477 16.55,11.6992 0,4.1993 -2.01,8.6915 -6.87,11.0352 -6.18,3.0078 -15.04,6.1719 -23.24,10.0391 -8.34,4.1601 -13.04,9.8437 -13.04,21.0544 0,13.692 9.71,22.383 26.28,22.383 8.84,0 19.03,-2.5 26.89,-7.187 l -4.18,-10.196 c -5.84,3.672 -15.05,6.016 -22.71,6.016 -9.88,0 -14.24,-4.004 -14.24,-11.211 0,-4.004 1.84,-6.9922 4.87,-8.8282 7.18,-4.1992 16.88,-7.0312 26.4,-11.875 7.19,-3.5156 12.7,-9.375 12.7,-21.2305 0,-16.5429 -11.53,-23.7304 -26.91,-23.7304 -19.05,0 -32.09,8.0273 -32.09,8.0273" /><path
         id="path28"
         style="fill:#da193b;fill-opacity:1;fill-rule:nonzero;stroke:none"
         d="m 1290.46,120.82 h 12.69 V 37.2656 h -12.69 z m -2.34,23.575 c 0,5.175 4.18,8.847 8.7,8.847 4.67,0 8.84,-3.672 8.84,-8.847 0,-4.688 -4.17,-8.868 -8.84,-8.868 -4.52,0 -8.7,4.18 -8.7,8.868" /><path
         id="path30"
         style="fill:#da193b;fill-opacity:1;fill-rule:nonzero;stroke:none"
         d="m 1334.9,58.1641 v 51.6209 h -12.69 v 11.035 h 12.69 v 20.899 l 12.7,2.5 V 120.82 h 19.89 V 109.785 H 1347.6 V 57.9883 c 0,-9.5508 1.18,-11.875 7.87,-11.875 4.68,0 11.52,2.1875 11.52,2.1875 l 3.01,-9.1992 c 0,0 -9.53,-3.8672 -16.54,-3.8672 -13.7,0 -18.56,4.0234 -18.56,22.9297" /><path
         id="path32"
         style="fill:#da193b;fill-opacity:1;fill-rule:nonzero;stroke:none"
         d="m 1376.67,2.98828 3.02,9.53122 c 0,0 5.85,-1.6601 11.22,-1.6601 7.66,0 11.36,4.1797 13.69,10.6836 l 4.68,15.7226 -30.27,83.5544 h 14.38 l 21.24,-61.3278 1,-5.3516 1,5.3516 19.21,61.3278 h 12.7 L 1415.45,16.1914 C 1411.79,4.66797 1404.09,0 1394.06,0 c -9,0 -17.39,2.98828 -17.39,2.98828" /><path
         id="path34"
         style="fill:#da193b;fill-opacity:1;fill-rule:nonzero;stroke:none"
         d="m 1560.34,78.2031 c 0,25.2349 -9.03,33.9259 -22.23,33.9259 -11.87,0 -21.07,-8.691 -21.07,-33.9259 0,-25.4101 9.2,-32.2461 22.22,-32.2461 11.37,0 21.08,6.836 21.08,32.2461 z m -56.64,0 c 0,38.4569 21.38,44.9609 34.92,44.9609 13.71,0 35.1,-6.504 35.1,-44.9609 0,-36.7578 -20.73,-43.2812 -35.1,-43.2812 -14.22,0 -34.92,6.5234 -34.92,43.2812" /><path
         id="path36"
         style="fill:#da193b;fill-opacity:1;fill-rule:nonzero;stroke:none"
         d="m 1600.42,109.785 h -12.52 v 11.035 h 12.52 v 18.399 c 0,15.351 7.2,23.047 19.06,23.047 9.04,0 17.38,-3.496 17.38,-3.496 l -2.99,-9.024 c 0,0 -5.86,1.66 -11.89,1.66 -6.51,0 -8.85,-4.16 -8.85,-13.535 V 120.82 h 20.06 v -11.035 h -20.06 V 37.2656 h -12.71 v 72.5194" /><path
         id="path38"
         style="fill:#da193b;fill-opacity:1;fill-rule:nonzero;stroke:none"
         d="m 1745.65,79.8828 -16.21,49.4722 -1.33,8.184 -1.02,-8.184 -16.71,-49.4722 z m -23.75,72.3442 h 14.37 l 38.79,-114.9614 h -15.21 l -10.53,31.4063 h -42.79 l -10.35,-31.4063 h -13.54 l 39.26,114.9614" /><path
         id="path40"
         style="fill:#da193b;fill-opacity:1;fill-rule:nonzero;stroke:none"
         d="m 1842.74,79.0625 c 0,16.3477 -3.54,32.4215 -14.4,32.4215 -4.82,0 -8.51,-1.523 -8.51,-1.523 l -14.86,-4.844 V 52.1289 c 2.67,-2.5 7.34,-5.3516 16.03,-5.3516 12.7,0 21.74,7.3633 21.74,32.2852 z m -50.47,24.0425 c 0,6.348 -1.02,17.715 -1.02,17.715 h 8.85 c 1.17,-1.836 1.86,-3.515 2.85,-6.015 l 15.55,6.015 c 0,0 5.18,2.344 11.21,2.344 14.51,0 26.39,-11.191 26.39,-44.1015 0,-37.4414 -20.37,-44.1406 -33.24,-44.1406 -8.03,0 -13.56,2.5 -17.89,5.1758 V 2.83203 L 1792.27,0 v 103.105" /><path
         id="path42"
         style="fill:#da193b;fill-opacity:1;fill-rule:nonzero;stroke:none"
         d="m 1929.79,79.0625 c 0,16.3477 -3.5,32.4215 -14.36,32.4215 -4.86,0 -8.53,-1.523 -8.53,-1.523 l -14.88,-4.844 V 52.1289 c 2.69,-2.5 7.36,-5.3516 16.03,-5.3516 12.7,0 21.74,7.3633 21.74,32.2852 z m -50.47,24.0425 c 0,6.348 -1.01,17.715 -1.01,17.715 h 8.86 c 1.16,-1.836 1.84,-3.515 2.85,-6.015 l 15.53,6.015 c 0,0 5.2,2.344 11.21,2.344 14.53,0 26.41,-11.191 26.41,-44.1015 0,-37.4414 -20.41,-44.1406 -33.26,-44.1406 -8.03,0 -13.54,2.5 -17.89,5.1758 V 2.83203 L 1879.32,0 v 103.105" /><path
         id="path44"
         style="fill:#da193b;fill-opacity:1;fill-rule:nonzero;stroke:none"
         d="M 1966.39,56.9922 V 159.258 l 12.7,3.008 V 57.9883 c 0,-8.1836 0.66,-11.875 5.33,-11.875 4.2,0 8.2,1.3672 8.2,1.3672 l 3.17,-8.7305 c 0,0 -6.49,-3.5156 -13.87,-3.5156 -11.86,0 -15.53,6.0351 -15.53,21.7578" /><path
         id="path46"
         style="fill:#da193b;fill-opacity:1;fill-rule:nonzero;stroke:none"
         d="m 2012.35,120.82 h 12.69 V 37.2656 h -12.69 z m -2.35,23.575 c 0,5.175 4.15,8.847 8.68,8.847 4.66,0 8.86,-3.672 8.86,-8.847 0,-4.688 -4.2,-8.868 -8.86,-8.868 -4.53,0 -8.68,4.18 -8.68,8.868" /><path
         id="path48"
         style="fill:#da193b;fill-opacity:1;fill-rule:nonzero;stroke:none"
         d="m 2098.23,87.0703 c 0,18.7107 -7.52,25.2537 -18.05,25.2537 -11.72,0 -18.89,-7.558 -19.39,-25.2537 z m -50.65,-8.8672 c 0,39.6099 19.55,44.9609 31.94,44.9609 13.69,0 31.91,-4.687 31.91,-36.0937 V 76.3672 h -50.64 c 0.5,-24.0625 7.03,-29.4141 19.39,-29.4141 12.38,0 25.41,5.8399 25.41,5.8399 l 4.18,-10.1758 c 0,0 -13.05,-7.6953 -32.09,-7.6953 -12.36,0 -30.1,4.1797 -30.1,43.2812" /><path
         id="path50"
         style="fill:#da193b;fill-opacity:1;fill-rule:nonzero;stroke:none"
         d="m 2166.25,47.7734 16.55,4.8438 v 53.0078 c -2.68,2.344 -7.72,5.859 -16.39,5.859 -13.2,0 -22.58,-7.207 -22.58,-32.5973 0,-10.2148 1,-32.2461 14.22,-32.2461 3.83,0 8.2,1.1328 8.2,1.1328 z m -35.6,31.1133 c 0,38.0863 19.22,44.2773 33.75,44.2773 8.18,0 14.53,-3.359 18.4,-6.016 v 42.11 l 12.85,3.008 V 54.9609 c 0,-6.3281 1.02,-17.6953 1.02,-17.6953 h -9.05 c -1.35,1.9922 -2.32,3.8477 -3.34,6.1719 l -18.2,-6.8555 c -2.68,-0.9961 -6.04,-1.6601 -9.2,-1.6601 -14.38,0 -26.23,11.1914 -26.23,43.9648" /><path
         id="path52"
         style="fill:#da193b;fill-opacity:1;fill-rule:nonzero;stroke:none"
         d="m 2256.63,43.6133 4.35,11.3476 c 7.36,-3.3398 16.7,-7.3437 30.08,-7.3437 14.22,0 21.91,6.3476 21.91,19.043 0,10.5468 -5.04,15.7226 -11.03,18.5546 -9.06,4.1993 -16.06,6.3672 -25.92,11.1915 -10.53,5.3517 -17.21,12.2267 -17.21,28.0857 0,18.555 13.03,30.078 32.41,30.078 12.05,0 23.24,-3.672 33.08,-8.007 l -4.82,-10.547 c -7.68,3.203 -17.05,6.543 -27.93,6.543 -12.52,0 -19.05,-7.207 -19.05,-18.223 0,-8.203 3.85,-12.695 8.54,-15.195 8.85,-4.864 16.21,-7.032 26.89,-11.8754 10.04,-4.5117 19.56,-12.7148 19.56,-30.7617 0,-20.2148 -14.2,-31.582 -34.77,-31.582 -16.7,0 -29.08,5.3515 -36.09,8.6914" /><path
         id="path54"
         style="fill:#da193b;fill-opacity:1;fill-rule:nonzero;stroke:none"
         d="m 2344.03,79.8828 c 0,39.1012 21.23,43.2812 31.93,43.2812 10.51,0 20.04,-3.184 24.38,-5.176 L 2396,107.969 c -3.83,1.66 -11.35,3.672 -19.53,3.672 -11.72,0 -19.24,-8.711 -19.24,-32.266 0,-22.8906 5.84,-32.5977 18.56,-32.5977 10.35,0 17.55,2.6954 21.71,4.5118 l 4.01,-9.668 c -5,-2.5195 -14.02,-6.6992 -28.07,-6.6992 -13.38,0 -29.41,5.8594 -29.41,44.9609" /><path
         id="path56"
         style="fill:#da193b;fill-opacity:1;fill-rule:nonzero;stroke:none"
         d="m 2420.24,120.82 h 12.68 V 37.2656 h -12.68 z m -2.36,23.575 c 0,5.175 4.18,8.847 8.69,8.847 4.68,0 8.88,-3.672 8.88,-8.847 0,-4.688 -4.2,-8.868 -8.88,-8.868 -4.51,0 -8.69,4.18 -8.69,8.868" /><path
         id="path58"
         style="fill:#da193b;fill-opacity:1;fill-rule:nonzero;stroke:none"
         d="m 2506.14,87.0703 c 0,18.7107 -7.52,25.2537 -18.07,25.2537 -11.7,0 -18.87,-7.558 -19.37,-25.2537 z m -50.65,-8.8672 c 0,39.6099 19.55,44.9609 31.92,44.9609 13.69,0 31.91,-4.687 31.91,-36.0937 V 76.3672 h -50.62 c 0.5,-24.0625 6.99,-29.4141 19.37,-29.4141 12.36,0 25.39,5.8399 25.39,5.8399 l 4.2,-10.1758 c 0,0 -13.07,-7.6953 -32.09,-7.6953 -12.38,0 -30.08,4.1797 -30.08,43.2812" /><path
         id="path60"
         style="fill:#da193b;fill-opacity:1;fill-rule:nonzero;stroke:none"
         d="m 2541.72,103.594 c 0,5.859 -1.01,17.226 -1.01,17.226 h 8.85 c 1.5,-2.5 2.34,-4.16 3.67,-8.027 l 14.72,7.363 c 4.01,1.992 8.34,3.008 13.01,3.008 13.38,0 22.07,-6.504 22.07,-24.9023 V 37.2656 h -12.85 v 55.9961 c 0,13.3593 -2.19,17.5393 -12.05,17.5393 -4.67,0 -7.52,-1.348 -7.52,-1.348 l -16.21,-6.66 V 37.2656 h -12.68 v 66.3284" /><path
         id="path62"
         style="fill:#da193b;fill-opacity:1;fill-rule:nonzero;stroke:none"
         d="m 2624.59,79.8828 c 0,39.1012 21.22,43.2812 31.94,43.2812 10.51,0 20.04,-3.184 24.39,-5.176 l -4.35,-10.019 c -3.83,1.66 -11.39,3.672 -19.55,3.672 -11.72,0 -19.24,-8.711 -19.24,-32.266 0,-22.8906 5.86,-32.5977 18.55,-32.5977 10.35,0 17.58,2.6954 21.74,4.5118 l 4.01,-9.668 c -5,-2.5195 -14.03,-6.6992 -28.09,-6.6992 -13.36,0 -29.4,5.8594 -29.4,44.9609" /><path
         id="path64"
         style="fill:#da193b;fill-opacity:1;fill-rule:nonzero;stroke:none"
         d="m 2747.25,87.0703 c 0,18.7107 -7.52,25.2537 -18.07,25.2537 -11.69,0 -18.88,-7.558 -19.39,-25.2537 z m -50.64,-8.8672 c 0,39.6099 19.55,44.9609 31.93,44.9609 13.69,0 31.91,-4.687 31.91,-36.0937 V 76.3672 h -50.66 c 0.51,-24.0625 7.05,-29.4141 19.39,-29.4141 12.39,0 25.41,5.8399 25.41,5.8399 l 4.2,-10.1758 c 0,0 -13.04,-7.6953 -32.12,-7.6953 -12.33,0 -30.06,4.1797 -30.06,43.2812" /><path
         id="path66"
         style="fill:#da193b;fill-opacity:1;fill-rule:nonzero;stroke:none"
         d="m 2775.67,42.9492 4.16,10.1953 c 0,0 13.05,-6.1914 25.39,-6.1914 7.71,0 16.54,1.3477 16.54,11.6992 0,4.1993 -2.01,8.6915 -6.81,11.0352 -6.21,3.0078 -15.04,6.1719 -23.27,10.0391 -8.35,4.1601 -13.02,9.8437 -13.02,21.0544 0,13.692 9.7,22.383 26.23,22.383 8.88,0 19.06,-2.5 26.91,-7.187 l -4.18,-10.196 c -5.86,3.672 -15.02,6.016 -22.73,6.016 -9.87,0 -14.18,-4.004 -14.18,-11.211 0,-4.004 1.81,-6.9922 4.82,-8.8282 7.21,-4.1992 16.88,-7.0312 26.43,-11.875 7.19,-3.5156 12.69,-9.375 12.69,-21.2305 0,-16.5429 -11.52,-23.7304 -26.93,-23.7304 -19.04,0 -32.05,8.0273 -32.05,8.0273" /><path
         id="path68"
         style="fill:#231f20;fill-opacity:1;fill-rule:nonzero;stroke:none"
         d="M 0,570.375 H 159.895 V 530.191 H 46.3867 V 437.426 H 153.262 V 398.109 H 46.3867 V 266.484 H 0 v 303.891" /><path
         id="path70"
         style="fill:#231f20;fill-opacity:1;fill-rule:nonzero;stroke:none"
         d="m 220.41,570.375 h 46.36 V 445.379 h 110.867 v 124.996 h 46.386 V 266.484 H 377.637 V 407.387 H 266.77 V 266.484 h -46.36 v 303.891" /><path
         id="path72"
         style="fill:#da193b;fill-opacity:1;fill-rule:nonzero;stroke:none"
         d="M 572.043,570.375 V 37.5977 h 43.289 V 570.375 h -43.289" /><path
         id="path74"
         style="fill:#231f20;fill-opacity:1;fill-rule:nonzero;stroke:none"
         d="m 1217.27,380.883 37.08,113.976 3.98,26.934 4.41,-26.934 35.78,-113.976 z m 68.89,189.492 h -50.81 l -99.34,-303.891 h 46.35 l 24.29,78.188 h 102.48 l 24.76,-78.188 h 51.65 l -99.38,303.891" /><path
         id="path76"
         style="fill:#231f20;fill-opacity:1;fill-rule:nonzero;stroke:none"
         d="m 994.641,299.176 c -56.067,0 -69.328,46.824 -69.328,117.488 0,75.09 15,121.02 69.328,121.02 55.209,0 68.919,-45.93 68.919,-121.02 0,-70.664 -13.27,-117.488 -68.919,-117.488 m 0,277.39 c -65.801,0 -117.493,-32.699 -117.493,-159.902 0,-128.09 49.036,-156.351 117.493,-156.351 68.039,0 117.069,28.261 117.069,156.351 0,127.203 -49.48,159.902 -117.069,159.902" /><path
         id="path78"
         style="fill:#231f20;fill-opacity:1;fill-rule:nonzero;stroke:none"
         d="m 1424.11,570.375 h 64.49 l 99.37,-210.254 11.92,-42.398 -2.64,43.742 v 208.91 h 46.39 V 266.484 h -60.08 l -102.48,212.02 -14.14,44.172 3.08,-44.606 V 266.484 h -45.91 v 303.891" /><path
         id="path80"
         style="fill:#231f20;fill-opacity:1;fill-rule:nonzero;stroke:none"
         d="m 1716.94,570.375 h 64.49 l 99.38,-210.254 11.91,-42.398 -2.66,43.742 v 208.91 h 46.39 V 266.484 h -60.06 l -102.48,212.02 -14.12,44.172 3.11,-44.606 V 266.484 h -45.96 v 303.891" /><path
         id="path82"
         style="fill:#231f20;fill-opacity:1;fill-rule:nonzero;stroke:none"
         d="m 2009.77,570.375 h 166.97 v -40.184 h -120.6 v -86.582 h 109.55 v -39.308 h -109.55 v -95.399 h 125 v -42.418 h -171.37 v 303.891" /><path
         id="path84"
         style="fill:#231f20;fill-opacity:1;fill-rule:nonzero;stroke:none"
         d="m 2237.23,377.797 v 192.57 h 46.84 V 378.688 c 0,-60.516 10.15,-75.54 49.9,-75.54 14.12,0 28.71,3.536 38.42,7.067 l 33.16,12.363 v 247.789 h 46.33 v -254.41 c 0,-15.894 2.66,-49.473 2.66,-49.473 h -33.15 c -3.51,5.313 -7.03,11.504 -10.56,20.332 l -40.22,-16.796 c -12.32,-5.293 -30.9,-9.707 -47.27,-9.707 -68.02,0 -86.11,33.578 -86.11,117.484" /><path
         id="path86"
         style="fill:#231f20;fill-opacity:1;fill-rule:nonzero;stroke:none"
         d="m 2540.67,570.375 h 68.46 l 61.4,-222.613 6.17,-37.547 6.2,37.547 59.6,222.613 h 66.27 l 24.73,-303.891 h -47.67 l -16.39,211.586 -1.29,48.141 -7.95,-48.141 -60.51,-211.586 h -49.49 l -59.63,211.586 -8.85,48.141 -1.3,-48.141 -16.76,-211.586 h -47.27 l 24.28,303.891" /><path
         id="path88"
         style="fill:#231f20;fill-opacity:1;fill-rule:nonzero;stroke:none"
         d="M 763.359,570.375 V 329.84 c 0,-46.832 -23.586,-57.594 -50.964,-69.527 l 14.109,-35.059 c 40.066,12.91 83.684,28.613 83.684,100.18 v 244.941 h -46.829" /></g></g></svg>