<svg xmlns="http://www.w3.org/2000/svg" style="display: none;">
    <symbol id="csv" viewBox="0 0 48 48">
        <path d="M47.987,21.938c-0.006-0.091-0.023-0.178-0.053-0.264c-0.011-0.032-0.019-0.063-0.033-0.094 c-0.048-0.104-0.109-0.202-0.193-0.285c-0.001-0.001-0.001-0.001-0.001-0.001L42,15.586V10c0-0.022-0.011-0.041-0.013-0.063 c-0.006-0.088-0.023-0.173-0.051-0.257c-0.011-0.032-0.019-0.063-0.034-0.094c-0.049-0.106-0.11-0.207-0.196-0.293l-9-9 c-0.086-0.086-0.187-0.148-0.294-0.196c-0.03-0.014-0.06-0.022-0.091-0.032c-0.085-0.03-0.172-0.047-0.263-0.052 C32.039,0.01,32.021,0,32,0H7C6.448,0,6,0.448,6,1v14.586l-5.707,5.707c0,0-0.001,0.001-0.002,0.002 c-0.084,0.084-0.144,0.182-0.192,0.285c-0.014,0.031-0.022,0.062-0.033,0.094c-0.03,0.086-0.048,0.173-0.053,0.264 C0.011,21.96,0,21.978,0,22v19c0,0.552,0.448,1,1,1h5v5c0,0.552,0.448,1,1,1h34c0.552,0,1-0.448,1-1v-5h5c0.552,0,1-0.448,1-1V22 C48,21.978,47.989,21.96,47.987,21.938z M44.586,21H42v-2.586L44.586,21z M38.586,9H33V3.414L38.586,9z M8,2h23v8 c0,0.552,0.448,1,1,1h8v5v5H8v-5V2z M6,18.414V21H3.414L6,18.414z M40,46H8v-4h32V46z M46,40H2V23h5h34h5V40z" />
        <path d="M23.422,27.885c0.147-0.136,0.312-0.235,0.493-0.298c0.181-0.062,0.368-0.093,0.561-0.093 c0.669,0,1.224,0.266,1.666,0.799l1.122-1.462c-0.329-0.385-0.734-0.677-1.215-0.876c-0.482-0.198-1.028-0.297-1.64-0.297 c-0.419,0-0.833,0.071-1.241,0.212c-0.408,0.142-0.774,0.36-1.097,0.655c-0.323,0.295-0.584,0.666-0.782,1.113 c-0.198,0.448-0.298,0.984-0.298,1.607c0,0.499,0.065,0.926,0.195,1.283c0.13,0.358,0.306,0.669,0.527,0.935 c0.221,0.267,0.476,0.496,0.765,0.689c0.289,0.193,0.598,0.368,0.927,0.527c0.521,0.261,0.952,0.544,1.292,0.85 c0.34,0.306,0.51,0.72,0.51,1.241c0,0.533-0.142,0.946-0.425,1.241s-0.64,0.442-1.071,0.442c-0.385,0-0.762-0.091-1.131-0.272 s-0.683-0.431-0.944-0.748l-1.105,1.496c0.34,0.397,0.793,0.725,1.36,0.986c0.567,0.261,1.184,0.391,1.853,0.391 c0.465,0,0.907-0.079,1.326-0.238c0.419-0.159,0.785-0.394,1.097-0.706c0.312-0.311,0.561-0.694,0.748-1.147 c0.187-0.453,0.281-0.975,0.281-1.564c0-0.51-0.079-0.952-0.238-1.326c-0.159-0.374-0.363-0.697-0.612-0.969 c-0.249-0.272-0.527-0.504-0.833-0.697c-0.306-0.193-0.606-0.363-0.901-0.51c-0.499-0.249-0.901-0.513-1.207-0.791 c-0.306-0.277-0.459-0.671-0.459-1.181c0-0.295,0.042-0.55,0.128-0.765C23.159,28.197,23.275,28.021,23.422,27.885z" />
        <path d="M15.177,28.854c0.204-0.397,0.459-0.711,0.765-0.944c0.306-0.232,0.663-0.348,1.071-0.348 c0.737,0,1.337,0.334,1.802,1.003l1.173-1.428c-0.329-0.476-0.754-0.841-1.275-1.097c-0.521-0.255-1.128-0.382-1.819-0.382 c-0.669,0-1.278,0.156-1.828,0.467c-0.55,0.312-1.017,0.748-1.403,1.309c-0.385,0.562-0.683,1.23-0.892,2.006 c-0.21,0.777-0.314,1.624-0.314,2.542c0,0.918,0.105,1.762,0.314,2.533s0.504,1.436,0.884,1.997 c0.38,0.562,0.844,1.001,1.394,1.318s1.165,0.476,1.845,0.476c0.748,0,1.368-0.147,1.861-0.442s0.898-0.68,1.215-1.156 l-1.173-1.377c-0.193,0.295-0.434,0.544-0.722,0.748s-0.632,0.306-1.028,0.306c-0.419,0-0.785-0.116-1.097-0.349 c-0.312-0.232-0.569-0.546-0.774-0.943s-0.357-0.864-0.459-1.403c-0.102-0.538-0.153-1.107-0.153-1.708 c0-0.612,0.051-1.187,0.153-1.726C14.82,29.718,14.973,29.251,15.177,28.854z" />
        <polygon points="32.007,35.62 31.956,35.62 29.95,25.964 27.672,25.964 30.613,38 33.197,38 36.189,25.964 34.013,25.964 " />
    </symbol>
    <symbol id="adobe" viewBox="0 0 53 53">
        <path d="M45.707,10.074l-9.794-9.782C35.725,0.105,35.471,0,35.206,0H8C7.448,0,7,0.447,7,1v51c0,0.553,0.448,1,1,1h37 c0.552,0,1-0.447,1-1V10.782C46,10.517,45.895,10.263,45.707,10.074z M42.586,10H36V3.414L42.586,10z M9,51V2h25v9 c0,0.553,0.448,1,1,1h9v39H9z" />
        <path d="M37.949,33.179c-3.623,0-5.458,0.638-6.316,1.104c-1.92-1.904-3.809-4.688-5.28-7.55c1.607-5.646,1.417-9.334-0.645-10.45 c-1.187-0.646-2.679-0.165-3.547,1.14c-0.246,0.368-0.993,1.489,0.417,5.598c0.403,1.174,0.964,2.513,1.649,3.902 c-0.583,1.899-1.413,4.168-2.568,6.863c-0.798,1.862-1.548,3.437-2.242,4.765c-2.781,1.17-5.236,2.461-6.316,3.695 c-1.095,1.251-1.477,2.854-0.952,3.991c0.333,0.72,1.002,1.146,1.793,1.146c0.01,0,0.021,0,0.031,0 c1.95-0.028,4.325-2.561,6.866-7.251c3.608-1.456,7.844-2.794,10.386-3.527c1.009,0.854,2.047,1.501,3.084,1.847 c3.347,1.115,5.654,0.287,6.698-0.859c0.722-0.794,0.921-1.79,0.534-2.666C41.309,34.4,40.494,33.179,37.949,33.179z M13.975,45.415c-0.11-0.146-0.13-0.983,0.631-1.854c0.56-0.639,1.68-1.339,3.109-2.047 C15.627,44.781,14.294,45.476,13.975,45.415z M23.825,18.531c0.216-0.323,0.527-0.529,0.769-0.529 c0.059,0,0.114,0.013,0.162,0.038c0.517,0.28,1.123,1.84,0.276,5.824c-0.146-0.358-0.283-0.714-0.411-1.065 C23.583,19.947,23.702,18.731,23.825,18.531z M22.197,37.452c0.43-0.902,0.864-1.863,1.299-2.88 c0.797-1.859,1.474-3.603,2.03-5.22c1.172,2.028,2.557,4.024,4.048,5.651C27.773,35.542,24.993,36.412,22.197,37.452z M39.528,36.245c-0.638,0.702-2.303,1.069-4.585,0.31c-0.519-0.173-1.052-0.454-1.592-0.824c0.823-0.265,2.255-0.552,4.599-0.552 c1.2,0,1.678,0.363,1.763,0.556S39.592,36.175,39.528,36.245z" />
    </symbol>
    <symbol id="trashcan" viewBox="-47 0 512 512">
        <path d="m416.875 114.441406-11.304688-33.886718c-4.304687-12.90625-16.339843-21.578126-29.941406-21.578126h-95.011718v-30.933593c0-15.460938-12.570313-28.042969-28.027344-28.042969h-87.007813c-15.453125 0-28.027343 12.582031-28.027343 28.042969v30.933593h-95.007813c-13.605469 0-25.640625 8.671876-29.945313 21.578126l-11.304687 33.886718c-2.574219 7.714844-1.2695312 16.257813 3.484375 22.855469 4.753906 6.597656 12.445312 10.539063 20.578125 10.539063h11.816406l26.007813 321.605468c1.933594 23.863282 22.183594 42.558594 46.109375 42.558594h204.863281c23.921875 0 44.175781-18.695312 46.105469-42.5625l26.007812-321.601562h6.542969c8.132812 0 15.824219-3.941407 20.578125-10.535157 4.753906-6.597656 6.058594-15.144531 3.484375-22.859375zm-249.320312-84.441406h83.0625v28.976562h-83.0625zm162.804687 437.019531c-.679687 8.402344-7.796875 14.980469-16.203125 14.980469h-204.863281c-8.40625 0-15.523438-6.578125-16.203125-14.980469l-25.816406-319.183593h288.898437zm-298.566406-349.183593 9.269531-27.789063c.210938-.640625.808594-1.070313 1.484375-1.070313h333.082031c.675782 0 1.269532.429688 1.484375 1.070313l9.269531 27.789063zm0 0" />
        <path d="m282.515625 465.957031c.265625.015625.527344.019531.792969.019531 7.925781 0 14.550781-6.210937 14.964844-14.21875l14.085937-270.398437c.429687-8.273437-5.929687-15.332031-14.199219-15.761719-8.292968-.441406-15.328125 5.925782-15.761718 14.199219l-14.082032 270.398437c-.429687 8.273438 5.925782 15.332032 14.199219 15.761719zm0 0" />
        <path d="m120.566406 451.792969c.4375 7.996093 7.054688 14.183593 14.964844 14.183593.273438 0 .554688-.007812.832031-.023437 8.269531-.449219 14.609375-7.519531 14.160157-15.792969l-14.753907-270.398437c-.449219-8.273438-7.519531-14.613281-15.792969-14.160157-8.269531.449219-14.609374 7.519532-14.160156 15.792969zm0 0" />
        <path d="m209.253906 465.976562c8.285156 0 15-6.714843 15-15v-270.398437c0-8.285156-6.714844-15-15-15s-15 6.714844-15 15v270.398437c0 8.285157 6.714844 15 15 15zm0 0" />
    </symbol>
    <symbol id="pencil" viewBox="0 0 512.002 512.002">
        <g>
            <g>
                <path d="M512.002,98.91c0-14.359-5.585-27.857-15.756-38.028l-45.138-45.137c-9.996-10.007-23.854-15.744-38.016-15.744 s-28.02,5.737-38.028,15.756l-10.927,10.927c-4.55,4.55-4.55,11.904,0,16.454c4.55,4.55,11.904,4.55,16.454,0l10.927-10.927 c11.345-11.357,31.791-11.357,43.136,0l45.137,45.137c5.76,5.76,8.937,13.417,8.937,21.562c0,8.145-3.165,15.802-8.937,21.574 l-45.836,45.836c-4.55,4.55-4.515,11.939,0.035,16.489l6.772,6.784c0.908,0.896,1.42,2.141,1.42,3.409 c0,3.921-5.457,6.191-8.227,3.409L315.603,78.058c-0.908-0.908-1.42-2.153-1.42-3.421c0-3.933,5.457-6.179,8.227-3.409 l76.637,76.637c4.55,4.55,11.904,4.55,16.454,0c4.55-4.55,4.55-11.904,0-16.454l-76.625-76.625 c-5.225-5.236-12.463-8.239-19.875-8.239c-15.488,0-28.09,12.602-28.09,28.09c0,6.714,2.583,13.231,6.958,18.316L38.32,352.501 c-4.55,4.55-4.55,11.904,0,16.454l69.818,69.818c2.269,2.269,5.248,3.409,8.227,3.409s5.958-1.14,8.227-3.409 c4.55-4.55,4.55-11.904,0-16.454l-61.591-61.591l251.183-251.183l88.273,88.273l-257.14,257.129l-92.881,23.215l-18.607-18.607 l12.369-49.455c1.571-6.237-2.223-12.556-8.471-14.115c-6.249-1.606-12.544,2.234-14.103,8.471L0.351,497.549 c-1.001,3.968,0.174,8.157,3.06,11.055c2.199,2.199,5.178,3.398,8.227,3.398c0.943,0,1.885-0.116,2.816-0.349l139.636-34.909 c2.048-0.512,3.921-1.571,5.411-3.06l259.549-259.549c5.073,4.387,11.578,6.959,18.316,6.959c15.488,0,28.09-12.602,28.09-28.09 c0-6.726-2.479-13.324-6.865-18.409l37.655-37.667C506.405,126.768,512.002,113.269,512.002,98.91z" />
            </g>
        </g>
        <g>
            <g>
                <path d="M322.411,154.683c-4.55-4.55-11.904-4.55-16.454,0L108.139,352.501c-4.55,4.55-4.55,11.904,0,16.454 c2.269,2.269,5.248,3.409,8.227,3.409s5.958-1.14,8.227-3.409l197.818-197.818C326.96,166.587,326.96,159.233,322.411,154.683z" />
            </g>
        </g>
        <g>
            <g>
                <path d="M357.32,189.592c-4.55-4.55-11.904-4.55-16.454,0L143.048,387.41c-4.55,4.55-4.55,11.904,0,16.454 c2.269,2.269,5.248,3.409,8.227,3.409c2.979,0,5.958-1.14,8.227-3.409L357.32,206.046 C361.87,201.496,361.87,194.142,357.32,189.592z" />
            </g>
        </g>
    </symbol>
    <symbol id="add" viewBox="0 0 53 53">
        <path d="M45.707,10.074l-9.794-9.782C35.726,0.105,35.471,0,35.206,0H8C7.447,0,7,0.447,7,1v51c0,0.553,0.447,1,1,1h37 c0.553,0,1-0.447,1-1V10.782C46,10.517,45.895,10.263,45.707,10.074z M42.586,10H36V3.414L42.586,10z M9,51V2h25v9 c0,0.553,0.447,1,1,1h9v39H9z" />
        <path d="M40.5,39H35v-6c0-0.553-0.447-1-1-1s-1,0.447-1,1v6h-6c-0.553,0-1,0.447-1,1s0.447,1,1,1h6v6c0,0.553,0.447,1,1,1 s1-0.447,1-1v-6h5.5c0.553,0,1-0.447,1-1S41.053,39,40.5,39z" />
    </symbol>
    <symbol id="printer" viewBox="0 0 188 188">
        <path d="M165.992,56H154V28h-12V0H46v28H34v28H22.008C10.976,56,2,64.955,2,75.961V160h44v28h96v-28h44V75.961 C186,64.955,177.024,56,165.992,56z M142,36h4v20h-4V36z M54,8h80v48H54V8z M42,36h4v20h-4V36z M134,180H54v-48h80V180z M178,152 h-36v-20h16v-8h-16H46H30v8h16v20H10V75.961C10,69.365,15.387,64,22.008,64H34h12h96h12h11.992C172.613,64,178,69.365,178,75.961 V152z" />
        <path d="M150,76c-6.617,0-12,5.383-12,12s5.383,12,12,12s12-5.383,12-12S156.617,76,150,76z M150,92c-2.207,0-4-1.793-4-4 c0-2.207,1.793-4,4-4c2.207,0,4,1.793,4,4C154,90.207,152.207,92,150,92z" />
    </symbol>
    <symbol id="upload" viewBox="0 0 208 208">
        <path d="M176,128.841v28H32v-28H0v60h208v-60H176z M200,180.841H8v-44h16v28h160v-28h16V180.841z" />
        <path d="M79.934,52.427L100,32.357v104.484h8V33.179l20.066,20.069c0.781,0.781,1.805,1.172,2.828,1.172s2.047-0.391,2.828-1.172 c1.562-1.562,1.562-4.094,0-5.656l-27.305-27.308c-1.5-1.5-4.156-1.5-5.656,0L74.277,46.771c-1.562,1.562-1.562,4.094,0,5.656 C75.839,53.989,78.371,53.989,79.934,52.427z M103.59,28.768l0.281,0.281h-0.562L103.59,28.768z" />
    </symbol>
    <symbol id="floppy" viewBox="0 0 1792 1792">
        <path d="M512 1536h768v-384h-768v384zm896 0h128v-896q0-14-10-38.5t-20-34.5l-281-281q-10-10-34-20t-39-10v416q0 40-28 68t-68 28h-576q-40 0-68-28t-28-68v-416h-128v1280h128v-416q0-40 28-68t68-28h832q40 0 68 28t28 68v416zm-384-928v-320q0-13-9.5-22.5t-22.5-9.5h-192q-13 0-22.5 9.5t-9.5 22.5v320q0 13 9.5 22.5t22.5 9.5h192q13 0 22.5-9.5t9.5-22.5zm640 32v928q0 40-28 68t-68 28h-1344q-40 0-68-28t-28-68v-1344q0-40 28-68t68-28h928q40 0 88 20t76 48l280 280q28 28 48 76t20 88z" />
    </symbol>
    <symbol id="cross" viewBox="0 0 32 32">
        <g>
            <path clip-rule="evenodd" d="M16,0C7.163,0,0,7.163,0,16c0,8.836,7.163,16,16,16   c8.836,0,16-7.163,16-16C32,7.163,24.836,0,16,0z M16,30C8.268,30,2,23.732,2,16C2,8.268,8.268,2,16,2s14,6.268,14,14   C30,23.732,23.732,30,16,30z" fill="#121313" fill-rule="evenodd" />
            <path clip-rule="evenodd" d="M22.729,21.271l-5.268-5.269l5.238-5.195   c0.395-0.391,0.395-1.024,0-1.414c-0.394-0.39-1.034-0.39-1.428,0l-5.231,5.188l-5.309-5.31c-0.394-0.396-1.034-0.396-1.428,0   c-0.394,0.395-0.394,1.037,0,1.432l5.301,5.302l-5.331,5.287c-0.394,0.391-0.394,1.024,0,1.414c0.394,0.391,1.034,0.391,1.429,0   l5.324-5.28l5.276,5.276c0.394,0.396,1.034,0.396,1.428,0C23.123,22.308,23.123,21.667,22.729,21.271z" fill="#121313" fill-rule="evenodd" />
        </g>
    </symbol>
    <symbol id="fh-joanneum-logo" viewBox="0 0 377.95999 76.879997">
        <g transform="matrix(1.3333333,0,0,-1.3333333,0,76.88)" id="g10">
            <g transform="scale(0.1)" id="g12">
                <path id="path14" style="fill:#da193b;fill-opacity:1;fill-rule:nonzero;stroke:none" d="m 764.426,79.0625 v 73.1645 h 13.867 V 79.0625 c 0,-24.7656 4.352,-31.1133 21.578,-31.1133 5.676,0 12.016,1.6797 15.195,2.8516 l 14.7,5.6836 v 95.7426 h 13.547 V 54.9609 c 0,-6.3281 0.996,-17.6953 0.996,-17.6953 h -9.512 c -1.176,1.836 -2.524,4.1797 -3.676,7.6758 L 814.91,38.4375 c -4.195,-1.6797 -11.363,-3.5156 -17.222,-3.5156 -25.918,0 -33.262,12.5586 -33.262,44.1406" />
                <path id="path16" style="fill:#da193b;fill-opacity:1;fill-rule:nonzero;stroke:none" d="m 872.371,103.594 c 0,5.859 -0.984,17.226 -0.984,17.226 h 8.828 c 1.504,-2.5 2.351,-4.16 3.691,-8.027 l 14.699,7.363 c 4.032,1.992 8.368,3.008 13.028,3.008 13.394,0 22.078,-6.504 22.078,-24.9023 V 37.2656 h -12.859 v 55.9961 c 0,13.3593 -2.192,17.5393 -12.051,17.5393 -4.668,0 -7.512,-1.348 -7.512,-1.348 l -16.223,-6.66 V 37.2656 h -12.695 v 66.3284" />
                <path id="path18" style="fill:#da193b;fill-opacity:1;fill-rule:nonzero;stroke:none" d="m 959.426,120.82 h 12.715 V 37.2656 h -12.715 z m -2.324,23.575 c 0,5.175 4.168,8.847 8.691,8.847 4.668,0 8.848,-3.672 8.848,-8.847 0,-4.688 -4.18,-8.868 -8.848,-8.868 -4.523,0 -8.691,4.18 -8.691,8.868" />
                <path id="path20" style="fill:#da193b;fill-opacity:1;fill-rule:nonzero;stroke:none" d="m 989.52,120.82 h 14.19 l 21.75,-66.0153 1.17,-5.332 1.17,5.332 18.87,66.0153 h 12.89 l -26.09,-83.5544 h -15.04 L 989.52,120.82" />
                <path id="path22" style="fill:#da193b;fill-opacity:1;fill-rule:nonzero;stroke:none" d="m 1121.86,87.0703 c 0,18.7107 -7.5,25.2537 -18.05,25.2537 -11.71,0 -18.86,-7.558 -19.37,-25.2537 z m -50.64,-8.8672 c 0,39.6099 19.54,44.9609 31.92,44.9609 13.73,0 31.93,-4.687 31.93,-36.0937 V 76.3672 h -50.63 c 0.51,-24.0625 7,-29.4141 19.37,-29.4141 12.38,0 25.4,5.8399 25.4,5.8399 l 4.19,-10.1758 c 0,0 -13.05,-7.6953 -32.09,-7.6953 -12.35,0 -30.09,4.1797 -30.09,43.2812" />
                <path id="path24" style="fill:#da193b;fill-opacity:1;fill-rule:nonzero;stroke:none" d="m 1157.45,105.449 c 0,3.692 -1,15.371 -1,15.371 h 9.17 c 1.35,-2.832 2.68,-7.187 3.52,-10.703 l 11.04,9.024 c 3,2.343 5.84,4.023 11.7,4.023 3.01,0 6,-0.84 8.19,-1.836 l -3.85,-12.187 c -1.68,0.488 -3.51,0.976 -6.01,0.976 -3.51,0 -6.37,-1.992 -6.54,-1.992 l -13.52,-8.6914 v -62.168 h -12.7 v 68.1834" />
                <path id="path26" style="fill:#da193b;fill-opacity:1;fill-rule:nonzero;stroke:none" d="m 1208.91,42.9492 4.18,10.1953 c 0,0 13.02,-6.1914 25.41,-6.1914 7.67,0 16.55,1.3477 16.55,11.6992 0,4.1993 -2.01,8.6915 -6.87,11.0352 -6.18,3.0078 -15.04,6.1719 -23.24,10.0391 -8.34,4.1601 -13.04,9.8437 -13.04,21.0544 0,13.692 9.71,22.383 26.28,22.383 8.84,0 19.03,-2.5 26.89,-7.187 l -4.18,-10.196 c -5.84,3.672 -15.05,6.016 -22.71,6.016 -9.88,0 -14.24,-4.004 -14.24,-11.211 0,-4.004 1.84,-6.9922 4.87,-8.8282 7.18,-4.1992 16.88,-7.0312 26.4,-11.875 7.19,-3.5156 12.7,-9.375 12.7,-21.2305 0,-16.5429 -11.53,-23.7304 -26.91,-23.7304 -19.05,0 -32.09,8.0273 -32.09,8.0273" />
                <path id="path28" style="fill:#da193b;fill-opacity:1;fill-rule:nonzero;stroke:none" d="m 1290.46,120.82 h 12.69 V 37.2656 h -12.69 z m -2.34,23.575 c 0,5.175 4.18,8.847 8.7,8.847 4.67,0 8.84,-3.672 8.84,-8.847 0,-4.688 -4.17,-8.868 -8.84,-8.868 -4.52,0 -8.7,4.18 -8.7,8.868" />
                <path id="path30" style="fill:#da193b;fill-opacity:1;fill-rule:nonzero;stroke:none" d="m 1334.9,58.1641 v 51.6209 h -12.69 v 11.035 h 12.69 v 20.899 l 12.7,2.5 V 120.82 h 19.89 V 109.785 H 1347.6 V 57.9883 c 0,-9.5508 1.18,-11.875 7.87,-11.875 4.68,0 11.52,2.1875 11.52,2.1875 l 3.01,-9.1992 c 0,0 -9.53,-3.8672 -16.54,-3.8672 -13.7,0 -18.56,4.0234 -18.56,22.9297" />
                <path id="path32" style="fill:#da193b;fill-opacity:1;fill-rule:nonzero;stroke:none" d="m 1376.67,2.98828 3.02,9.53122 c 0,0 5.85,-1.6601 11.22,-1.6601 7.66,0 11.36,4.1797 13.69,10.6836 l 4.68,15.7226 -30.27,83.5544 h 14.38 l 21.24,-61.3278 1,-5.3516 1,5.3516 19.21,61.3278 h 12.7 L 1415.45,16.1914 C 1411.79,4.66797 1404.09,0 1394.06,0 c -9,0 -17.39,2.98828 -17.39,2.98828" />
                <path id="path34" style="fill:#da193b;fill-opacity:1;fill-rule:nonzero;stroke:none" d="m 1560.34,78.2031 c 0,25.2349 -9.03,33.9259 -22.23,33.9259 -11.87,0 -21.07,-8.691 -21.07,-33.9259 0,-25.4101 9.2,-32.2461 22.22,-32.2461 11.37,0 21.08,6.836 21.08,32.2461 z m -56.64,0 c 0,38.4569 21.38,44.9609 34.92,44.9609 13.71,0 35.1,-6.504 35.1,-44.9609 0,-36.7578 -20.73,-43.2812 -35.1,-43.2812 -14.22,0 -34.92,6.5234 -34.92,43.2812" />
                <path id="path36" style="fill:#da193b;fill-opacity:1;fill-rule:nonzero;stroke:none" d="m 1600.42,109.785 h -12.52 v 11.035 h 12.52 v 18.399 c 0,15.351 7.2,23.047 19.06,23.047 9.04,0 17.38,-3.496 17.38,-3.496 l -2.99,-9.024 c 0,0 -5.86,1.66 -11.89,1.66 -6.51,0 -8.85,-4.16 -8.85,-13.535 V 120.82 h 20.06 v -11.035 h -20.06 V 37.2656 h -12.71 v 72.5194" />
                <path id="path38" style="fill:#da193b;fill-opacity:1;fill-rule:nonzero;stroke:none" d="m 1745.65,79.8828 -16.21,49.4722 -1.33,8.184 -1.02,-8.184 -16.71,-49.4722 z m -23.75,72.3442 h 14.37 l 38.79,-114.9614 h -15.21 l -10.53,31.4063 h -42.79 l -10.35,-31.4063 h -13.54 l 39.26,114.9614" />
                <path id="path40" style="fill:#da193b;fill-opacity:1;fill-rule:nonzero;stroke:none" d="m 1842.74,79.0625 c 0,16.3477 -3.54,32.4215 -14.4,32.4215 -4.82,0 -8.51,-1.523 -8.51,-1.523 l -14.86,-4.844 V 52.1289 c 2.67,-2.5 7.34,-5.3516 16.03,-5.3516 12.7,0 21.74,7.3633 21.74,32.2852 z m -50.47,24.0425 c 0,6.348 -1.02,17.715 -1.02,17.715 h 8.85 c 1.17,-1.836 1.86,-3.515 2.85,-6.015 l 15.55,6.015 c 0,0 5.18,2.344 11.21,2.344 14.51,0 26.39,-11.191 26.39,-44.1015 0,-37.4414 -20.37,-44.1406 -33.24,-44.1406 -8.03,0 -13.56,2.5 -17.89,5.1758 V 2.83203 L 1792.27,0 v 103.105" />
                <path id="path42" style="fill:#da193b;fill-opacity:1;fill-rule:nonzero;stroke:none" d="m 1929.79,79.0625 c 0,16.3477 -3.5,32.4215 -14.36,32.4215 -4.86,0 -8.53,-1.523 -8.53,-1.523 l -14.88,-4.844 V 52.1289 c 2.69,-2.5 7.36,-5.3516 16.03,-5.3516 12.7,0 21.74,7.3633 21.74,32.2852 z m -50.47,24.0425 c 0,6.348 -1.01,17.715 -1.01,17.715 h 8.86 c 1.16,-1.836 1.84,-3.515 2.85,-6.015 l 15.53,6.015 c 0,0 5.2,2.344 11.21,2.344 14.53,0 26.41,-11.191 26.41,-44.1015 0,-37.4414 -20.41,-44.1406 -33.26,-44.1406 -8.03,0 -13.54,2.5 -17.89,5.1758 V 2.83203 L 1879.32,0 v 103.105" />
                <path id="path44" style="fill:#da193b;fill-opacity:1;fill-rule:nonzero;stroke:none" d="M 1966.39,56.9922 V 159.258 l 12.7,3.008 V 57.9883 c 0,-8.1836 0.66,-11.875 5.33,-11.875 4.2,0 8.2,1.3672 8.2,1.3672 l 3.17,-8.7305 c 0,0 -6.49,-3.5156 -13.87,-3.5156 -11.86,0 -15.53,6.0351 -15.53,21.7578" />
                <path id="path46" style="fill:#da193b;fill-opacity:1;fill-rule:nonzero;stroke:none" d="m 2012.35,120.82 h 12.69 V 37.2656 h -12.69 z m -2.35,23.575 c 0,5.175 4.15,8.847 8.68,8.847 4.66,0 8.86,-3.672 8.86,-8.847 0,-4.688 -4.2,-8.868 -8.86,-8.868 -4.53,0 -8.68,4.18 -8.68,8.868" />
                <path id="path48" style="fill:#da193b;fill-opacity:1;fill-rule:nonzero;stroke:none" d="m 2098.23,87.0703 c 0,18.7107 -7.52,25.2537 -18.05,25.2537 -11.72,0 -18.89,-7.558 -19.39,-25.2537 z m -50.65,-8.8672 c 0,39.6099 19.55,44.9609 31.94,44.9609 13.69,0 31.91,-4.687 31.91,-36.0937 V 76.3672 h -50.64 c 0.5,-24.0625 7.03,-29.4141 19.39,-29.4141 12.38,0 25.41,5.8399 25.41,5.8399 l 4.18,-10.1758 c 0,0 -13.05,-7.6953 -32.09,-7.6953 -12.36,0 -30.1,4.1797 -30.1,43.2812" />
                <path id="path50" style="fill:#da193b;fill-opacity:1;fill-rule:nonzero;stroke:none" d="m 2166.25,47.7734 16.55,4.8438 v 53.0078 c -2.68,2.344 -7.72,5.859 -16.39,5.859 -13.2,0 -22.58,-7.207 -22.58,-32.5973 0,-10.2148 1,-32.2461 14.22,-32.2461 3.83,0 8.2,1.1328 8.2,1.1328 z m -35.6,31.1133 c 0,38.0863 19.22,44.2773 33.75,44.2773 8.18,0 14.53,-3.359 18.4,-6.016 v 42.11 l 12.85,3.008 V 54.9609 c 0,-6.3281 1.02,-17.6953 1.02,-17.6953 h -9.05 c -1.35,1.9922 -2.32,3.8477 -3.34,6.1719 l -18.2,-6.8555 c -2.68,-0.9961 -6.04,-1.6601 -9.2,-1.6601 -14.38,0 -26.23,11.1914 -26.23,43.9648" />
                <path id="path52" style="fill:#da193b;fill-opacity:1;fill-rule:nonzero;stroke:none" d="m 2256.63,43.6133 4.35,11.3476 c 7.36,-3.3398 16.7,-7.3437 30.08,-7.3437 14.22,0 21.91,6.3476 21.91,19.043 0,10.5468 -5.04,15.7226 -11.03,18.5546 -9.06,4.1993 -16.06,6.3672 -25.92,11.1915 -10.53,5.3517 -17.21,12.2267 -17.21,28.0857 0,18.555 13.03,30.078 32.41,30.078 12.05,0 23.24,-3.672 33.08,-8.007 l -4.82,-10.547 c -7.68,3.203 -17.05,6.543 -27.93,6.543 -12.52,0 -19.05,-7.207 -19.05,-18.223 0,-8.203 3.85,-12.695 8.54,-15.195 8.85,-4.864 16.21,-7.032 26.89,-11.8754 10.04,-4.5117 19.56,-12.7148 19.56,-30.7617 0,-20.2148 -14.2,-31.582 -34.77,-31.582 -16.7,0 -29.08,5.3515 -36.09,8.6914" />
                <path id="path54" style="fill:#da193b;fill-opacity:1;fill-rule:nonzero;stroke:none" d="m 2344.03,79.8828 c 0,39.1012 21.23,43.2812 31.93,43.2812 10.51,0 20.04,-3.184 24.38,-5.176 L 2396,107.969 c -3.83,1.66 -11.35,3.672 -19.53,3.672 -11.72,0 -19.24,-8.711 -19.24,-32.266 0,-22.8906 5.84,-32.5977 18.56,-32.5977 10.35,0 17.55,2.6954 21.71,4.5118 l 4.01,-9.668 c -5,-2.5195 -14.02,-6.6992 -28.07,-6.6992 -13.38,0 -29.41,5.8594 -29.41,44.9609" />
                <path id="path56" style="fill:#da193b;fill-opacity:1;fill-rule:nonzero;stroke:none" d="m 2420.24,120.82 h 12.68 V 37.2656 h -12.68 z m -2.36,23.575 c 0,5.175 4.18,8.847 8.69,8.847 4.68,0 8.88,-3.672 8.88,-8.847 0,-4.688 -4.2,-8.868 -8.88,-8.868 -4.51,0 -8.69,4.18 -8.69,8.868" />
                <path id="path58" style="fill:#da193b;fill-opacity:1;fill-rule:nonzero;stroke:none" d="m 2506.14,87.0703 c 0,18.7107 -7.52,25.2537 -18.07,25.2537 -11.7,0 -18.87,-7.558 -19.37,-25.2537 z m -50.65,-8.8672 c 0,39.6099 19.55,44.9609 31.92,44.9609 13.69,0 31.91,-4.687 31.91,-36.0937 V 76.3672 h -50.62 c 0.5,-24.0625 6.99,-29.4141 19.37,-29.4141 12.36,0 25.39,5.8399 25.39,5.8399 l 4.2,-10.1758 c 0,0 -13.07,-7.6953 -32.09,-7.6953 -12.38,0 -30.08,4.1797 -30.08,43.2812" />
                <path id="path60" style="fill:#da193b;fill-opacity:1;fill-rule:nonzero;stroke:none" d="m 2541.72,103.594 c 0,5.859 -1.01,17.226 -1.01,17.226 h 8.85 c 1.5,-2.5 2.34,-4.16 3.67,-8.027 l 14.72,7.363 c 4.01,1.992 8.34,3.008 13.01,3.008 13.38,0 22.07,-6.504 22.07,-24.9023 V 37.2656 h -12.85 v 55.9961 c 0,13.3593 -2.19,17.5393 -12.05,17.5393 -4.67,0 -7.52,-1.348 -7.52,-1.348 l -16.21,-6.66 V 37.2656 h -12.68 v 66.3284" />
                <path id="path62" style="fill:#da193b;fill-opacity:1;fill-rule:nonzero;stroke:none" d="m 2624.59,79.8828 c 0,39.1012 21.22,43.2812 31.94,43.2812 10.51,0 20.04,-3.184 24.39,-5.176 l -4.35,-10.019 c -3.83,1.66 -11.39,3.672 -19.55,3.672 -11.72,0 -19.24,-8.711 -19.24,-32.266 0,-22.8906 5.86,-32.5977 18.55,-32.5977 10.35,0 17.58,2.6954 21.74,4.5118 l 4.01,-9.668 c -5,-2.5195 -14.03,-6.6992 -28.09,-6.6992 -13.36,0 -29.4,5.8594 -29.4,44.9609" />
                <path id="path64" style="fill:#da193b;fill-opacity:1;fill-rule:nonzero;stroke:none" d="m 2747.25,87.0703 c 0,18.7107 -7.52,25.2537 -18.07,25.2537 -11.69,0 -18.88,-7.558 -19.39,-25.2537 z m -50.64,-8.8672 c 0,39.6099 19.55,44.9609 31.93,44.9609 13.69,0 31.91,-4.687 31.91,-36.0937 V 76.3672 h -50.66 c 0.51,-24.0625 7.05,-29.4141 19.39,-29.4141 12.39,0 25.41,5.8399 25.41,5.8399 l 4.2,-10.1758 c 0,0 -13.04,-7.6953 -32.12,-7.6953 -12.33,0 -30.06,4.1797 -30.06,43.2812" />
                <path id="path66" style="fill:#da193b;fill-opacity:1;fill-rule:nonzero;stroke:none" d="m 2775.67,42.9492 4.16,10.1953 c 0,0 13.05,-6.1914 25.39,-6.1914 7.71,0 16.54,1.3477 16.54,11.6992 0,4.1993 -2.01,8.6915 -6.81,11.0352 -6.21,3.0078 -15.04,6.1719 -23.27,10.0391 -8.35,4.1601 -13.02,9.8437 -13.02,21.0544 0,13.692 9.7,22.383 26.23,22.383 8.88,0 19.06,-2.5 26.91,-7.187 l -4.18,-10.196 c -5.86,3.672 -15.02,6.016 -22.73,6.016 -9.87,0 -14.18,-4.004 -14.18,-11.211 0,-4.004 1.81,-6.9922 4.82,-8.8282 7.21,-4.1992 16.88,-7.0312 26.43,-11.875 7.19,-3.5156 12.69,-9.375 12.69,-21.2305 0,-16.5429 -11.52,-23.7304 -26.93,-23.7304 -19.04,0 -32.05,8.0273 -32.05,8.0273" />
                <path id="path68" style="fill:#231f20;fill-opacity:1;fill-rule:nonzero;stroke:none" d="M 0,570.375 H 159.895 V 530.191 H 46.3867 V 437.426 H 153.262 V 398.109 H 46.3867 V 266.484 H 0 v 303.891" />
                <path id="path70" style="fill:#231f20;fill-opacity:1;fill-rule:nonzero;stroke:none" d="m 220.41,570.375 h 46.36 V 445.379 h 110.867 v 124.996 h 46.386 V 266.484 H 377.637 V 407.387 H 266.77 V 266.484 h -46.36 v 303.891" />
                <path id="path72" style="fill:#da193b;fill-opacity:1;fill-rule:nonzero;stroke:none" d="M 572.043,570.375 V 37.5977 h 43.289 V 570.375 h -43.289" />
                <path id="path74" style="fill:#231f20;fill-opacity:1;fill-rule:nonzero;stroke:none" d="m 1217.27,380.883 37.08,113.976 3.98,26.934 4.41,-26.934 35.78,-113.976 z m 68.89,189.492 h -50.81 l -99.34,-303.891 h 46.35 l 24.29,78.188 h 102.48 l 24.76,-78.188 h 51.65 l -99.38,303.891" />
                <path id="path76" style="fill:#231f20;fill-opacity:1;fill-rule:nonzero;stroke:none" d="m 994.641,299.176 c -56.067,0 -69.328,46.824 -69.328,117.488 0,75.09 15,121.02 69.328,121.02 55.209,0 68.919,-45.93 68.919,-121.02 0,-70.664 -13.27,-117.488 -68.919,-117.488 m 0,277.39 c -65.801,0 -117.493,-32.699 -117.493,-159.902 0,-128.09 49.036,-156.351 117.493,-156.351 68.039,0 117.069,28.261 117.069,156.351 0,127.203 -49.48,159.902 -117.069,159.902" />
                <path id="path78" style="fill:#231f20;fill-opacity:1;fill-rule:nonzero;stroke:none" d="m 1424.11,570.375 h 64.49 l 99.37,-210.254 11.92,-42.398 -2.64,43.742 v 208.91 h 46.39 V 266.484 h -60.08 l -102.48,212.02 -14.14,44.172 3.08,-44.606 V 266.484 h -45.91 v 303.891" />
                <path id="path80" style="fill:#231f20;fill-opacity:1;fill-rule:nonzero;stroke:none" d="m 1716.94,570.375 h 64.49 l 99.38,-210.254 11.91,-42.398 -2.66,43.742 v 208.91 h 46.39 V 266.484 h -60.06 l -102.48,212.02 -14.12,44.172 3.11,-44.606 V 266.484 h -45.96 v 303.891" />
                <path id="path82" style="fill:#231f20;fill-opacity:1;fill-rule:nonzero;stroke:none" d="m 2009.77,570.375 h 166.97 v -40.184 h -120.6 v -86.582 h 109.55 v -39.308 h -109.55 v -95.399 h 125 v -42.418 h -171.37 v 303.891" />
                <path id="path84" style="fill:#231f20;fill-opacity:1;fill-rule:nonzero;stroke:none" d="m 2237.23,377.797 v 192.57 h 46.84 V 378.688 c 0,-60.516 10.15,-75.54 49.9,-75.54 14.12,0 28.71,3.536 38.42,7.067 l 33.16,12.363 v 247.789 h 46.33 v -254.41 c 0,-15.894 2.66,-49.473 2.66,-49.473 h -33.15 c -3.51,5.313 -7.03,11.504 -10.56,20.332 l -40.22,-16.796 c -12.32,-5.293 -30.9,-9.707 -47.27,-9.707 -68.02,0 -86.11,33.578 -86.11,117.484" />
                <path id="path86" style="fill:#231f20;fill-opacity:1;fill-rule:nonzero;stroke:none" d="m 2540.67,570.375 h 68.46 l 61.4,-222.613 6.17,-37.547 6.2,37.547 59.6,222.613 h 66.27 l 24.73,-303.891 h -47.67 l -16.39,211.586 -1.29,48.141 -7.95,-48.141 -60.51,-211.586 h -49.49 l -59.63,211.586 -8.85,48.141 -1.3,-48.141 -16.76,-211.586 h -47.27 l 24.28,303.891" />
                <path id="path88" style="fill:#231f20;fill-opacity:1;fill-rule:nonzero;stroke:none" d="M 763.359,570.375 V 329.84 c 0,-46.832 -23.586,-57.594 -50.964,-69.527 l 14.109,-35.059 c 40.066,12.91 83.684,28.613 83.684,100.18 v 244.941 h -46.829" />
            </g>
        </g>
    </symbol>
</svg>